# Blender v3.0.1 OBJ File: 'porta.blend'
# www.blender.org
mtllib porta.mtl
o Porta(Folha)_Cube.003
v -0.400059 0.136005 -0.016104
v -0.399936 0.136005 0.018896
v -0.400059 2.236005 -0.016104
v -0.399936 2.236005 0.018896
v 0.399936 0.136005 -0.018896
v 0.400059 0.136005 0.016104
v 0.399936 2.236005 -0.018896
v 0.400059 2.236005 0.016104
v -0.399936 2.236005 0.018896
v -0.400059 2.236005 -0.016104
v 0.399936 2.236005 -0.018896
v 0.400059 2.236005 0.016104
v -0.399936 2.236005 0.018896
v -0.400059 2.236005 -0.016104
v 0.399936 2.236005 -0.018896
v 0.400059 2.236005 0.016104
vt 0.125000 0.500000
vt 0.375000 0.500000
vt 0.375000 0.750000
vt 0.125000 0.750000
vt 0.625000 0.500000
vt 0.875000 0.500000
vt 0.875000 0.750000
vt 0.625000 0.750000
vn -0.0035 0.0000 -1.0000
vn 0.0035 -0.0000 1.0000
vn 0.0000 1.0000 -0.0000
vn 0.0000 -1.0000 0.0000
vn 1.0000 0.0000 -0.0035
usemtl None
s off
f 3/1/1 7/2/1 5/3/1 1/4/1
f 8/5/2 4/6/2 2/7/2 6/8/2
f 3/1/3 4/6/3 8/5/3 7/2/3
f 1/4/4 5/3/4 6/8/4 2/7/4
f 7/2/5 8/5/5 6/8/5 5/3/5
l 7 11
l 12 8
l 3 10
l 9 4
l 11 15
l 16 12
l 10 14
l 13 9
o Porta(Batente)_Cube.005
v 0.399936 0.136005 -0.018896
v 0.400059 0.136005 0.016104
v 0.399936 2.236005 -0.018896
v 0.400059 2.236005 0.016104
v 0.435059 2.236005 0.016104
v 0.434936 2.236005 -0.018896
v 0.434936 0.136005 -0.018896
v 0.435059 0.136005 0.016104
v -0.399937 2.236005 0.018896
v -0.400059 2.236005 -0.016104
v 0.399937 2.236005 -0.018896
v 0.400059 2.236005 0.016104
v -0.399937 2.271005 0.018896
v -0.400059 2.271005 -0.016104
v 0.399937 2.271005 -0.018896
v 0.400059 2.271005 0.016104
v -0.400059 0.136005 -0.016104
v -0.399937 0.136005 0.018896
v 0.399937 0.136005 -0.018896
v 0.400059 0.136005 0.016104
v -0.400059 0.101005 -0.016104
v -0.399937 0.101005 0.018896
v 0.400059 0.101005 0.016104
v 0.399937 0.101005 -0.018896
v -0.400059 0.136005 -0.016104
v -0.399937 0.136005 0.018896
v -0.400059 2.236005 -0.016104
v -0.399937 2.236005 0.018896
v -0.435059 2.236005 -0.015981
v -0.435059 0.136005 -0.015982
v -0.434936 0.136005 0.019018
v -0.434936 2.236005 0.019018
v 0.435059 2.270066 0.016104
v 0.434936 2.270066 -0.018896
v -0.435059 2.271738 -0.015981
v -0.434936 2.271738 0.019018
v 0.434564 0.101005 0.016104
v 0.434441 0.101005 -0.018896
v -0.434338 0.101005 -0.016104
v -0.434216 0.101005 0.018896
vt 0.625000 0.500000
vt 0.625000 0.750000
vt 0.625000 0.750000
vt 0.625000 0.500000
vt 0.375000 0.500000
vt 0.375000 0.750000
vt 0.375000 0.500000
vt 0.375000 0.750000
vt 0.875000 0.500000
vt 0.625000 0.500000
vt 0.625000 0.500000
vt 0.875000 0.500000
vt 0.375000 0.250000
vt 0.625000 0.250000
vt 0.375000 0.500000
vt 0.375000 0.250000
vt 0.625000 0.250000
vt 0.375000 0.500000
vt 0.125000 0.500000
vt 0.125000 0.500000
vt 0.625000 0.000000
vt 0.375000 0.000000
vt 0.375000 0.000000
vt 0.625000 0.000000
vt 0.375000 0.750000
vt 0.625000 0.750000
vt 0.625000 1.000000
vt 0.375000 1.000000
vt 0.125000 0.750000
vt 0.375000 0.750000
vt 0.125000 0.750000
vt 0.625000 0.750000
vt 0.875000 0.750000
vt 0.875000 0.750000
vt 0.125000 0.750000
vt 0.875000 0.750000
vt 0.875000 0.750000
vt 0.125000 0.750000
vt 0.375000 0.000000
vt 0.625000 0.000000
vt 0.625000 0.250000
vt 0.375000 0.250000
vt 0.875000 0.500000
vt 0.875000 0.500000
vt 0.125000 0.500000
vt 0.125000 0.500000
vt 0.375000 0.500000
vt 0.625000 0.500000
vt 0.625000 0.250000
vt 0.375000 0.250000
vt 0.375000 0.750000
vt 0.625000 0.750000
vt 0.375000 0.000000
vt 0.625000 0.000000
vn 0.0000 -0.0000 1.0000
vn 1.0000 0.0000 -0.0035
vn 0.0000 1.0000 0.0000
vn 0.0000 -1.0000 0.0000
vn 0.0000 0.0000 -1.0000
vn 0.0035 -0.0000 1.0000
vn -1.0000 0.0000 0.0035
vn -0.0035 0.0000 -1.0000
vn 0.0268 0.9996 -0.0001
vn 0.0209 0.9998 -0.0001
vn 0.9999 -0.0141 -0.0035
vn 0.9998 0.0206 -0.0035
vn -0.0018 0.0017 -1.0000
vn 0.0018 -0.0017 1.0000
usemtl None
s off
f 20/9/6 18/10/6 24/11/6 21/12/6
f 22/13/7 21/12/7 24/11/7 23/14/7
f 19/15/8 20/9/8 21/12/8 22/13/8
f 18/10/9 17/16/9 23/14/9 24/11/9
f 17/16/10 19/15/10 22/13/10 23/14/10
f 25/17/11 28/18/11 32/19/11 29/20/11
f 30/21/8 29/22/8 32/19/8 31/23/8
f 26/24/12 25/25/12 29/22/12 30/21/12
f 28/18/7 27/26/7 31/23/7 32/19/7
f 27/26/13 26/27/13 30/28/13 31/23/13
f 26/27/9 27/26/9 28/18/9 25/17/9
f 34/29/12 33/30/12 37/31/12 38/32/12
f 40/33/9 39/34/9 38/35/9 37/36/9
f 33/37/13 35/38/13 40/33/13 37/39/13
f 36/40/11 34/41/11 38/42/11 39/34/11
f 35/38/7 36/40/7 39/34/7 40/33/7
f 33/37/8 34/41/8 36/40/8 35/38/8
f 41/43/9 42/44/9 47/45/9 46/46/9
f 46/47/12 47/48/12 48/49/12 45/50/12
f 42/44/11 44/51/11 48/52/11 47/45/11
f 43/53/13 41/43/13 46/46/13 45/54/13
f 44/51/8 43/53/8 45/54/8 48/52/8
f 43/53/7 44/51/7 42/44/7 41/43/7
f 36/40/12 28/18/12 27/26/12 35/38/12
f 21/12/7 22/13/7 50/55/7 49/56/7
f 31/23/14 32/19/14 49/56/14 50/55/14
f 45/50/12 48/49/12 52/57/12 51/58/12
f 29/22/15 30/21/15 51/58/15 52/57/15
f 39/34/9 40/33/9 54/59/9 53/60/9
f 53/60/16 54/59/16 23/14/16 24/11/16
f 38/32/8 37/31/8 55/61/8 56/62/8
f 55/61/17 46/46/17 47/45/17 56/62/17
f 24/11/6 36/40/6 39/34/6 53/60/6
f 17/16/10 23/14/10 54/59/10 40/33/10
f 19/15/10 31/23/10 50/55/10 22/13/10
f 32/19/6 20/9/6 21/12/6 49/56/6
f 56/62/18 47/45/18 42/44/18 38/32/18
f 46/46/19 55/61/19 37/31/19 33/30/19
f 45/50/13 51/58/13 30/21/13 43/53/13
f 52/57/11 48/49/11 44/51/11 29/22/11
l 18 39
l 37 41
o Maçaneta_Plane.001
v -0.129879 1.281602 0.063918
v -0.330715 1.281602 0.063918
v -0.330715 1.235162 0.063918
v -0.129879 1.235162 0.063918
v -0.101872 1.281602 0.086327
v -0.316696 1.281602 0.086327
v -0.316696 1.235162 0.086327
v -0.101872 1.235162 0.086327
v -0.362060 1.312947 0.021647
v -0.362060 1.203816 0.021647
v -0.252930 1.312947 0.021647
v -0.252930 1.203816 0.021647
v -0.284275 1.281602 0.021647
v -0.330715 1.281602 0.021647
v -0.330715 1.235162 0.021647
v -0.284275 1.235162 0.021647
v -0.284275 1.281602 0.063918
v -0.330715 1.281602 0.063918
v -0.330715 1.235162 0.063918
v -0.284275 1.235162 0.063918
v -0.129879 1.235446 -0.060745
v -0.330715 1.235446 -0.060745
v -0.330715 1.281885 -0.060433
v -0.129879 1.281885 -0.060433
v -0.101872 1.235597 -0.083153
v -0.316696 1.235597 -0.083153
v -0.316696 1.282036 -0.082841
v -0.101872 1.282036 -0.082841
v -0.362060 1.203818 -0.018685
v -0.362060 1.312945 -0.017951
v -0.252930 1.203817 -0.018685
v -0.252930 1.312945 -0.017951
v -0.284275 1.235162 -0.018474
v -0.330715 1.235162 -0.018474
v -0.330715 1.281601 -0.018162
v -0.284275 1.281601 -0.018162
v -0.284275 1.235446 -0.060745
v -0.330715 1.235446 -0.060745
v -0.330715 1.281885 -0.060433
v -0.284275 1.281885 -0.060433
vt 0.287227 0.287227
vt 0.712773 0.287227
vt 0.712773 0.712773
vt 0.287227 0.712773
vt 0.287227 0.287227
vt 0.712773 0.287227
vt 0.712773 0.712773
vt 0.287227 0.712773
vt 0.712773 0.287227
vt 0.712773 0.712773
vt 0.712773 0.712773
vt 0.712773 0.287227
vt 0.287227 0.287227
vt 0.287227 0.712773
vt 0.000000 1.000000
vt 0.000000 0.000000
vt 1.000000 0.000000
vt 1.000000 1.000000
vt 0.287227 0.287227
vt 0.287227 0.712773
vt 0.287227 0.287227
vt 0.712773 0.287227
vt 0.712773 0.712773
vt 0.287227 0.712773
vt 0.287227 0.287227
vt 0.712773 0.287227
vt 0.712773 0.712773
vt 0.287227 0.712773
vt 0.712773 0.287227
vt 0.712773 0.712773
vt 0.712773 0.712773
vt 0.712773 0.287227
vt 0.287227 0.287227
vt 0.287227 0.712773
vt 0.000000 1.000000
vt 0.000000 0.000000
vt 1.000000 0.000000
vt 1.000000 1.000000
vt 0.287227 0.287227
vt 0.287227 0.712773
vn -0.0000 0.0000 1.0000
vn -0.8478 0.0000 0.5304
vn 0.0000 -1.0000 0.0000
vn 0.0000 1.0000 0.0000
vn 0.6248 0.0000 -0.7808
vn 0.0000 0.0000 -1.0000
vn 1.0000 0.0000 0.0000
vn -1.0000 0.0000 0.0000
vn -0.0000 0.0067 -1.0000
vn -0.8478 0.0036 -0.5304
vn 0.0000 1.0000 0.0067
vn -0.0000 -1.0000 -0.0067
vn 0.6248 -0.0052 0.7808
vn 0.0000 -0.0067 1.0000
usemtl None
s off
f 62/63/20 63/64/20 64/65/20 61/66/20
f 58/67/21 59/68/21 63/64/21 62/63/21
f 59/68/22 60/69/22 64/65/22 63/64/22
f 57/70/23 58/67/23 62/63/23 61/66/23
f 57/70/24 61/66/24 64/65/24 60/69/24
f 57/70/25 60/69/25 59/68/25 58/67/25
f 71/71/22 72/72/22 76/73/22 75/74/22
f 70/75/20 69/76/20 67/77/20 65/78/20
f 71/71/20 70/75/20 65/78/20 66/79/20
f 72/72/20 71/71/20 66/79/20 68/80/20
f 69/76/20 72/72/20 68/80/20 67/77/20
f 69/76/23 70/75/23 74/81/23 73/82/23
f 72/72/26 69/76/26 73/82/26 76/73/26
f 70/75/27 71/71/27 75/74/27 74/81/27
f 70/75/25 69/76/25 72/72/25 71/71/25
f 82/83/28 83/84/28 84/85/28 81/86/28
f 78/87/29 79/88/29 83/84/29 82/83/29
f 79/88/30 80/89/30 84/85/30 83/84/30
f 77/90/31 78/87/31 82/83/31 81/86/31
f 77/90/32 81/86/32 84/85/32 80/89/32
f 77/90/33 80/89/33 79/88/33 78/87/33
f 91/91/30 92/92/30 96/93/30 95/94/30
f 90/95/28 89/96/28 87/97/28 85/98/28
f 91/91/28 90/95/28 85/98/28 86/99/28
f 92/92/28 91/91/28 86/99/28 88/100/28
f 89/96/28 92/92/28 88/100/28 87/97/28
f 89/96/31 90/95/31 94/101/31 93/102/31
f 92/92/26 89/96/26 93/102/26 96/93/26
f 90/95/27 91/91/27 95/94/27 94/101/27
f 90/95/33 89/96/33 92/92/33 91/91/33
