# Blender v3.0.1 OBJ File: 'Monitor.blend'
# www.blender.org
mtllib Monitor.mtl
o Circle
v 0.000000 0.000000 -1.000000
v -0.195090 0.000000 -0.980785
v -0.382683 0.000000 -0.923880
v -0.555570 0.000000 -0.831470
v -0.707107 0.000000 -0.707107
v -0.831470 0.000000 -0.555570
v -0.923880 0.000000 -0.382683
v -0.980785 0.000000 -0.195090
v -1.000000 0.000000 0.000000
v -0.980785 0.000000 0.195090
v -0.923880 0.000000 0.382683
v -0.831470 0.000000 0.555570
v -0.707107 0.000000 0.707107
v -0.555570 0.000000 0.831470
v -0.382683 0.000000 0.923880
v -0.195090 0.000000 0.980785
v 0.000000 0.000000 1.000000
v 0.195090 0.000000 0.980785
v 0.382683 0.000000 0.923880
v 0.555570 0.000000 0.831470
v 0.707107 0.000000 0.707107
v 0.831469 0.000000 0.555570
v 0.923880 0.000000 0.382684
v 0.980785 0.000000 0.195090
v 1.000000 0.000000 -0.000000
v 0.980785 0.000000 -0.195090
v 0.923879 0.000000 -0.382684
v 0.831470 0.000000 -0.555570
v 0.707107 0.000000 -0.707107
v 0.555570 0.000000 -0.831470
v 0.382683 0.000000 -0.923880
v 0.195090 0.000000 -0.980785
v 0.000000 0.064759 -1.000000
v -0.195090 0.064759 -0.980785
v -0.382683 0.064759 -0.923880
v -0.555570 0.064759 -0.831470
v -0.707107 0.064759 -0.707107
v -0.831470 0.064759 -0.555570
v -0.923880 0.064759 -0.382683
v -0.980785 0.064759 -0.195090
v -1.000000 0.064759 0.000000
v -0.980785 0.064759 0.195090
v -0.923880 0.064759 0.382683
v -0.831470 0.064759 0.555570
v -0.707107 0.064759 0.707107
v -0.555570 0.064759 0.831470
v -0.382683 0.064759 0.923880
v -0.195090 0.064759 0.980785
v 0.000000 0.064759 1.000000
v 0.195090 0.064759 0.980785
v 0.382683 0.064759 0.923880
v 0.555570 0.064759 0.831470
v 0.707107 0.064759 0.707107
v 0.831469 0.064759 0.555570
v 0.923880 0.064759 0.382684
v 0.980785 0.064759 0.195090
v 1.000000 0.064759 -0.000000
v 0.980785 0.064759 -0.195090
v 0.923879 0.064759 -0.382684
v 0.831470 0.064759 -0.555570
v 0.707107 0.064759 -0.707107
v 0.555570 0.064759 -0.831470
v 0.382683 0.064759 -0.923880
v 0.195090 0.064759 -0.980785
vt 0.000000 0.000000
vt 0.000000 0.000000
vt 0.000000 0.000000
vt 0.000000 0.000000
vt 0.000000 0.000000
vt 0.000000 0.000000
vt 0.000000 0.000000
vt 0.000000 0.000000
vt 0.000000 0.000000
vt 0.000000 0.000000
vt 0.000000 0.000000
vt 0.000000 0.000000
vt 0.000000 0.000000
vt 0.000000 0.000000
vt 0.000000 0.000000
vt 0.000000 0.000000
vt 0.000000 0.000000
vt 0.000000 0.000000
vt 0.000000 0.000000
vt 0.000000 0.000000
vt 0.000000 0.000000
vt 0.000000 0.000000
vt 0.000000 0.000000
vt 0.000000 0.000000
vt 0.000000 0.000000
vt 0.000000 0.000000
vt 0.000000 0.000000
vt 0.000000 0.000000
vt 0.000000 0.000000
vt 0.000000 0.000000
vt 0.000000 0.000000
vt 0.000000 0.000000
vt 0.000000 0.000000
vt 0.000000 0.000000
vt 0.000000 0.000000
vt 0.000000 0.000000
vt 0.000000 0.000000
vt 0.000000 0.000000
vt 0.000000 0.000000
vt 0.000000 0.000000
vt 0.000000 0.000000
vt 0.000000 0.000000
vt 0.000000 0.000000
vt 0.000000 0.000000
vt 0.000000 0.000000
vt 0.000000 0.000000
vt 0.000000 0.000000
vt 0.000000 0.000000
vt 0.000000 0.000000
vt 0.000000 0.000000
vt 0.000000 0.000000
vt 0.000000 0.000000
vt 0.000000 0.000000
vt 0.000000 0.000000
vt 0.000000 0.000000
vt 0.000000 0.000000
vt 0.000000 0.000000
vt 0.000000 0.000000
vt 0.000000 0.000000
vt 0.000000 0.000000
vt 0.000000 0.000000
vt 0.000000 0.000000
vt 0.000000 0.000000
vt 0.000000 0.000000
vn 0.0000 -1.0000 0.0000
vn 0.0000 1.0000 -0.0000
vn 0.4714 0.0000 -0.8819
vn 0.0980 0.0000 0.9952
vn -0.6344 0.0000 -0.7730
vn 0.2903 0.0000 -0.9569
vn 0.2903 0.0000 0.9569
vn -0.7730 0.0000 -0.6344
vn 0.0980 0.0000 -0.9952
vn 0.4714 0.0000 0.8819
vn -0.8819 0.0000 -0.4714
vn 0.6344 0.0000 0.7730
vn -0.9569 0.0000 -0.2903
vn 0.7730 0.0000 0.6344
vn -0.9952 0.0000 -0.0980
vn 0.8819 0.0000 0.4714
vn -0.9952 0.0000 0.0980
vn 0.9569 0.0000 0.2903
vn -0.9569 0.0000 0.2903
vn 0.9952 0.0000 0.0980
vn -0.8819 0.0000 0.4714
vn 0.9952 0.0000 -0.0980
vn -0.7730 0.0000 0.6344
vn 0.9569 0.0000 -0.2903
vn -0.6344 0.0000 0.7730
vn 0.8819 0.0000 -0.4714
vn -0.4714 0.0000 0.8819
vn -0.0980 0.0000 -0.9952
vn 0.7730 0.0000 -0.6344
vn -0.2903 0.0000 0.9569
vn -0.2903 0.0000 -0.9569
vn 0.6344 0.0000 -0.7730
vn -0.0980 0.0000 0.9952
vn -0.4714 0.0000 -0.8819
usemtl None
s off
f 2/1/1 1/2/1 32/3/1 31/4/1 30/5/1 29/6/1 28/7/1 27/8/1 26/9/1 25/10/1 24/11/1 23/12/1 22/13/1 21/14/1 20/15/1 19/16/1 18/17/1 17/18/1 16/19/1 15/20/1 14/21/1 13/22/1 12/23/1 11/24/1 10/25/1 9/26/1 8/27/1 7/28/1 6/29/1 5/30/1 4/31/1 3/32/1
f 34/33/2 35/34/2 36/35/2 37/36/2 38/37/2 39/38/2 40/39/2 41/40/2 42/41/2 43/42/2 44/43/2 45/44/2 46/45/2 47/46/2 48/47/2 49/48/2 50/49/2 51/50/2 52/51/2 53/52/2 54/53/2 55/54/2 56/55/2 57/56/2 58/57/2 59/58/2 60/59/2 61/60/2 62/61/2 63/62/2 64/63/2 33/64/2
f 30/5/3 31/4/3 63/62/3 62/61/3
f 17/18/4 18/17/4 50/49/4 49/48/4
f 4/31/5 5/30/5 37/36/5 36/35/5
f 31/4/6 32/3/6 64/63/6 63/62/6
f 18/17/7 19/16/7 51/50/7 50/49/7
f 5/30/8 6/29/8 38/37/8 37/36/8
f 32/3/9 1/2/9 33/64/9 64/63/9
f 19/16/10 20/15/10 52/51/10 51/50/10
f 6/29/11 7/28/11 39/38/11 38/37/11
f 20/15/12 21/14/12 53/52/12 52/51/12
f 7/28/13 8/27/13 40/39/13 39/38/13
f 21/14/14 22/13/14 54/53/14 53/52/14
f 8/27/15 9/26/15 41/40/15 40/39/15
f 22/13/16 23/12/16 55/54/16 54/53/16
f 9/26/17 10/25/17 42/41/17 41/40/17
f 23/12/18 24/11/18 56/55/18 55/54/18
f 10/25/19 11/24/19 43/42/19 42/41/19
f 24/11/20 25/10/20 57/56/20 56/55/20
f 11/24/21 12/23/21 44/43/21 43/42/21
f 25/10/22 26/9/22 58/57/22 57/56/22
f 12/23/23 13/22/23 45/44/23 44/43/23
f 26/9/24 27/8/24 59/58/24 58/57/24
f 13/22/25 14/21/25 46/45/25 45/44/25
f 27/8/26 28/7/26 60/59/26 59/58/26
f 14/21/27 15/20/27 47/46/27 46/45/27
f 1/2/28 2/1/28 34/33/28 33/64/28
f 28/7/29 29/6/29 61/60/29 60/59/29
f 15/20/30 16/19/30 48/47/30 47/46/30
f 2/1/31 3/32/31 35/34/31 34/33/31
f 29/6/32 30/5/32 62/61/32 61/60/32
f 16/19/33 17/18/33 49/48/33 48/47/33
f 3/32/34 4/31/34 36/35/34 35/34/34
o Circle.001
v 0.294642 0.092734 -0.433595
v 0.240309 0.092734 -0.425264
v 0.188065 0.092734 -0.400590
v 0.139916 0.092734 -0.360521
v 0.097713 0.092734 -0.306598
v 0.063078 0.092734 -0.240893
v 0.037341 0.092734 -0.165930
v 0.021493 0.092734 -0.084590
v 0.016142 0.092734 0.000000
v 0.021493 0.092734 0.084590
v 0.037341 0.092734 0.165930
v 0.063077 0.092734 0.240893
v 0.097713 0.092734 0.306598
v 0.139916 0.092734 0.360521
v 0.188065 0.092734 0.400590
v 0.240309 0.092734 0.425264
v 0.294642 0.092734 0.433595
v 0.348975 0.092734 0.425264
v 0.401220 0.092734 0.400590
v 0.449369 0.092734 0.360521
v 0.491572 0.092734 0.306598
v 0.526207 0.092734 0.240893
v 0.551943 0.092734 0.165930
v 0.567791 0.092734 0.084590
v 0.573143 0.092734 -0.000000
v 0.567791 0.092734 -0.084590
v 0.551943 0.092734 -0.165930
v 0.526207 0.092734 -0.240893
v 0.491572 0.092734 -0.306598
v 0.449369 0.092734 -0.360521
v 0.401220 0.092734 -0.400590
v 0.348975 0.092734 -0.425264
v 0.294642 1.499382 -0.433595
v 0.283098 1.446290 -0.425264
v 0.271997 1.395238 -0.400590
v 0.261766 1.348189 -0.360521
v 0.252798 1.306949 -0.306598
v 0.245439 1.273105 -0.240893
v 0.239971 1.247957 -0.165930
v 0.236603 1.232470 -0.084590
v 0.235466 1.227241 0.000000
v 0.236603 1.232470 0.084590
v 0.239971 1.247957 0.165930
v 0.245439 1.273105 0.240893
v 0.252798 1.306949 0.306598
v 0.261766 1.348189 0.360521
v 0.271997 1.395238 0.400590
v 0.283098 1.446290 0.425264
v 0.294642 1.499382 0.433595
v 0.306187 1.552474 0.425264
v 0.317288 1.603526 0.400590
v 0.327518 1.650576 0.360521
v 0.336486 1.691815 0.306598
v 0.343845 1.725659 0.240893
v 0.349314 1.750808 0.165930
v 0.352681 1.766294 0.084590
v 0.353818 1.771523 -0.000000
v 0.352681 1.766294 -0.084590
v 0.349313 1.750808 -0.165930
v 0.343845 1.725659 -0.240893
v 0.336486 1.691815 -0.306598
v 0.327518 1.650576 -0.360521
v 0.317288 1.603526 -0.400590
v 0.306187 1.552474 -0.425264
v -0.114228 1.445069 -0.425264
v -0.115697 1.499382 -0.433596
v -0.112815 1.392843 -0.400590
v -0.111513 1.344712 -0.360522
v -0.110372 1.302525 -0.306598
v -0.109436 1.267902 -0.240893
v -0.108740 1.242175 -0.165930
v -0.108311 1.226333 -0.084590
v -0.108166 1.220983 0.000000
v -0.108311 1.226333 0.084590
v -0.108740 1.242175 0.165930
v -0.109436 1.267902 0.240893
v -0.110372 1.302525 0.306598
v -0.111513 1.344712 0.360522
v -0.112815 1.392843 0.400590
v -0.114228 1.445069 0.425264
v -0.115697 1.499382 0.433596
v -0.117166 1.553695 0.425264
v -0.118579 1.605921 0.400590
v -0.119881 1.654052 0.360522
v -0.121022 1.696239 0.306598
v -0.121959 1.730862 0.240893
v -0.122655 1.756589 0.165930
v -0.123084 1.772431 0.084590
v -0.123228 1.777781 -0.000000
v -0.123084 1.772431 -0.084590
v -0.122655 1.756589 -0.165930
v -0.121959 1.730862 -0.240893
v -0.121022 1.696239 -0.306598
v -0.119881 1.654052 -0.360522
v -0.118579 1.605921 -0.400590
v -0.117166 1.553695 -0.425264
vt 0.000000 0.000000
vt 0.000000 0.000000
vt 0.000000 0.000000
vt 0.000000 0.000000
vt 0.000000 0.000000
vt 0.000000 0.000000
vt 0.000000 0.000000
vt 0.000000 0.000000
vt 0.000000 0.000000
vt 0.000000 0.000000
vt 0.000000 0.000000
vt 0.000000 0.000000
vt 0.000000 0.000000
vt 0.000000 0.000000
vt 0.000000 0.000000
vt 0.000000 0.000000
vt 0.000000 0.000000
vt 0.000000 0.000000
vt 0.000000 0.000000
vt 0.000000 0.000000
vt 0.000000 0.000000
vt 0.000000 0.000000
vt 0.000000 0.000000
vt 0.000000 0.000000
vt 0.000000 0.000000
vt 0.000000 0.000000
vt 0.000000 0.000000
vt 0.000000 0.000000
vt 0.000000 0.000000
vt 0.000000 0.000000
vt 0.000000 0.000000
vt 0.000000 0.000000
vt 0.000000 0.000000
vt 0.000000 0.000000
vt 0.000000 0.000000
vt 0.000000 0.000000
vt 0.000000 0.000000
vt 0.000000 0.000000
vt 0.000000 0.000000
vt 0.000000 0.000000
vt 0.000000 0.000000
vt 0.000000 0.000000
vt 0.000000 0.000000
vt 0.000000 0.000000
vt 0.000000 0.000000
vt 0.000000 0.000000
vt 0.000000 0.000000
vt 0.000000 0.000000
vt 0.000000 0.000000
vt 0.000000 0.000000
vt 0.000000 0.000000
vt 0.000000 0.000000
vt 0.000000 0.000000
vt 0.000000 0.000000
vt 0.000000 0.000000
vt 0.000000 0.000000
vt 0.000000 0.000000
vt 0.000000 0.000000
vt 0.000000 0.000000
vt 0.000000 0.000000
vt 0.000000 0.000000
vt 0.000000 0.000000
vt 0.000000 0.000000
vt 0.000000 0.000000
vt 0.000000 0.000000
vt 0.000000 0.000000
vt 0.000000 0.000000
vt 0.000000 0.000000
vt 0.000000 0.000000
vt 0.000000 0.000000
vt 0.000000 0.000000
vt 0.000000 0.000000
vt 0.000000 0.000000
vt 0.000000 0.000000
vt 0.000000 0.000000
vt 0.000000 0.000000
vt 0.000000 0.000000
vt 0.000000 0.000000
vt 0.000000 0.000000
vt 0.000000 0.000000
vt 0.000000 0.000000
vt 0.000000 0.000000
vt 0.000000 0.000000
vt 0.000000 0.000000
vt 0.000000 0.000000
vt 0.000000 0.000000
vt 0.000000 0.000000
vt 0.000000 0.000000
vt 0.000000 0.000000
vt 0.000000 0.000000
vt 0.000000 0.000000
vt 0.000000 0.000000
vt 0.000000 0.000000
vt 0.000000 0.000000
vt 0.000000 0.000000
vt 0.000000 0.000000
vn -0.9841 -0.1234 -0.1280
vn 0.9790 -0.1782 -0.0987
vn -0.9908 -0.1284 -0.0420
vn 0.9714 -0.1601 -0.1753
vn -0.9908 -0.1284 0.0420
vn 0.9534 -0.1344 -0.2701
vn -0.9841 -0.1234 0.1280
vn 0.9133 -0.1024 -0.3942
vn -0.9687 -0.1133 0.2206
vn 0.8246 -0.0663 -0.5618
vn 0.2481 -0.0038 0.9687
vn -0.9403 -0.0982 0.3258
vn 0.6292 -0.0300 -0.7766
vn 0.6292 -0.0300 0.7766
vn -0.8888 -0.0780 0.4515
vn 0.2481 -0.0038 -0.9687
vn 0.8246 -0.0663 0.5618
vn -0.7920 -0.0531 0.6082
vn -0.2425 -0.0036 -0.9702
vn 0.9133 -0.1024 0.3942
vn -0.6014 -0.0257 0.7985
vn -0.6014 -0.0257 -0.7985
vn 0.9534 -0.1344 0.2701
vn -0.2425 -0.0036 0.9702
vn -0.7920 -0.0531 -0.6082
vn 0.9714 -0.1601 0.1753
vn -0.8888 -0.0780 -0.4515
vn 0.9790 -0.1782 0.0987
vn -0.9403 -0.0982 -0.3258
vn 0.9817 -0.1875 0.0319
vn -0.9687 -0.1133 -0.2206
vn 0.9817 -0.1875 -0.0319
vn 0.0000 1.0000 -0.0000
vn -0.0130 -0.9980 -0.0625
vn 0.9996 0.0270 -0.0000
vn -0.0148 0.9470 -0.3209
vn -0.0130 -0.9980 0.0625
vn -0.0119 0.8870 -0.4616
vn -0.0123 -0.9818 0.1893
vn -0.0085 0.7912 -0.6115
vn -0.0111 -0.9468 0.3216
vn -0.0050 0.6443 -0.7647
vn -0.0002 0.1533 0.9882
vn -0.0092 -0.8866 0.4624
vn -0.0020 0.4313 -0.9022
vn -0.0020 0.4313 0.9022
vn -0.0069 -0.7907 0.6122
vn -0.0002 0.1533 -0.9882
vn -0.0050 0.6443 0.7647
vn -0.0043 -0.6438 0.7652
vn -0.0002 -0.1533 -0.9882
vn -0.0085 0.7912 0.6115
vn -0.0018 -0.4310 0.9024
vn -0.0018 -0.4310 -0.9024
vn -0.0119 0.8870 0.4616
vn -0.0002 -0.1533 0.9882
vn -0.0043 -0.6438 -0.7652
vn -0.0148 0.9470 0.3209
vn -0.0069 -0.7907 -0.6122
vn -0.0169 0.9819 0.1888
vn -0.0092 -0.8866 -0.4624
vn -0.0180 0.9979 0.0623
vn -0.0111 -0.9468 -0.3216
vn -0.0180 0.9979 -0.0623
vn -0.0123 -0.9818 -0.1893
vn -0.0169 0.9819 -0.1888
usemtl None
s off
f 88/65/35 87/66/35 119/67/35 120/68/35
f 75/69/36 74/70/36 106/71/36 107/72/36
f 89/73/37 88/65/37 120/68/37 121/74/37
f 76/75/38 75/69/38 107/72/38 108/76/38
f 90/77/39 89/73/39 121/74/39 122/78/39
f 77/79/40 76/75/40 108/76/40 109/80/40
f 91/81/41 90/77/41 122/78/41 123/82/41
f 78/83/42 77/79/42 109/80/42 110/84/42
f 92/85/43 91/81/43 123/82/43 124/86/43
f 79/87/44 78/83/44 110/84/44 111/88/44
f 66/89/45 65/90/45 97/91/45 98/92/45
f 93/93/46 92/85/46 124/86/46 125/94/46
f 80/95/47 79/87/47 111/88/47 112/96/47
f 67/97/48 66/89/48 98/92/48 99/98/48
f 94/99/49 93/93/49 125/94/49 126/100/49
f 81/101/50 80/95/50 112/96/50 113/102/50
f 68/103/51 67/97/51 99/98/51 100/104/51
f 95/105/52 94/99/52 126/100/52 127/106/52
f 82/107/53 81/101/53 113/102/53 114/108/53
f 69/109/54 68/103/54 100/104/54 101/110/54
f 96/111/55 95/105/55 127/106/55 128/112/55
f 83/113/56 82/107/56 114/108/56 115/114/56
f 70/115/57 69/109/57 101/110/57 102/116/57
f 65/90/58 96/111/58 128/112/58 97/91/58
f 84/117/59 83/113/59 115/114/59 116/118/59
f 71/119/60 70/115/60 102/116/60 103/120/60
f 85/121/61 84/117/61 116/118/61 117/122/61
f 72/123/62 71/119/62 103/120/62 104/124/62
f 86/125/63 85/121/63 117/122/63 118/126/63
f 73/127/64 72/123/64 104/124/64 105/128/64
f 87/66/65 86/125/65 118/126/65 119/67/65
f 74/70/66 73/127/66 105/128/66 106/71/66
f 66/89/67 67/97/67 68/103/67 69/109/67 70/115/67 71/119/67 72/123/67 73/127/67 74/70/67 75/69/67 76/75/67 77/79/67 78/83/67 79/87/67 80/95/67 81/101/67 82/107/67 83/113/67 84/117/67 85/121/67 86/125/67 87/66/67 88/65/67 89/73/67 90/77/67 91/81/67 92/85/67 93/93/67 94/99/67 95/105/67 96/111/67 65/90/67
f 121/74/68 120/68/68 152/129/68 153/130/68
f 129/131/69 130/132/69 160/133/69 159/134/69 158/135/69 157/136/69 156/137/69 155/138/69 154/139/69 153/130/69 152/129/69 151/140/69 150/141/69 149/142/69 148/143/69 147/144/69 146/145/69 145/146/69 144/147/69 143/148/69 142/149/69 141/150/69 140/151/69 139/152/69 138/153/69 137/154/69 136/155/69 135/156/69 134/157/69 133/158/69 132/159/69 131/160/69
f 108/76/70 107/72/70 139/152/70 140/151/70
f 122/78/71 121/74/71 153/130/71 154/139/71
f 109/80/72 108/76/72 140/151/72 141/150/72
f 123/82/73 122/78/73 154/139/73 155/138/73
f 110/84/74 109/80/74 141/150/74 142/149/74
f 124/86/75 123/82/75 155/138/75 156/137/75
f 111/88/76 110/84/76 142/149/76 143/148/76
f 98/92/77 97/91/77 130/132/77 129/131/77
f 125/94/78 124/86/78 156/137/78 157/136/78
f 112/96/79 111/88/79 143/148/79 144/147/79
f 99/98/80 98/92/80 129/131/80 131/160/80
f 126/100/81 125/94/81 157/136/81 158/135/81
f 113/102/82 112/96/82 144/147/82 145/146/82
f 100/104/83 99/98/83 131/160/83 132/159/83
f 127/106/84 126/100/84 158/135/84 159/134/84
f 114/108/85 113/102/85 145/146/85 146/145/85
f 101/110/86 100/104/86 132/159/86 133/158/86
f 128/112/87 127/106/87 159/134/87 160/133/87
f 115/114/88 114/108/88 146/145/88 147/144/88
f 102/116/89 101/110/89 133/158/89 134/157/89
f 97/91/90 128/112/90 160/133/90 130/132/90
f 116/118/91 115/114/91 147/144/91 148/143/91
f 103/120/92 102/116/92 134/157/92 135/156/92
f 117/122/93 116/118/93 148/143/93 149/142/93
f 104/124/94 103/120/94 135/156/94 136/155/94
f 118/126/95 117/122/95 149/142/95 150/141/95
f 105/128/96 104/124/96 136/155/96 137/154/96
f 119/67/97 118/126/97 150/141/97 151/140/97
f 106/71/98 105/128/98 137/154/98 138/153/98
f 120/68/99 119/67/99 151/140/99 152/129/99
f 107/72/100 106/71/100 138/153/100 139/152/100
o Plane
v -0.122282 2.475290 1.334425
v -0.129232 0.475302 1.334425
v -0.122282 2.475290 -1.334425
v -0.129232 0.475302 -1.334425
v -0.212439 2.475290 -1.334425
v -0.212439 2.475290 1.334425
v -0.219390 0.475302 1.334425
v -0.219390 0.475302 -1.334425
v -0.122282 2.475290 -1.210279
v -0.129232 0.475302 -1.210279
v -0.212439 2.475290 -1.210279
v -0.219390 0.475302 -1.210279
v -0.122282 2.475290 1.214226
v -0.212439 2.475290 1.214226
v -0.129232 0.475302 1.214226
v -0.219390 0.475302 1.214226
v -0.125757 2.413643 1.334425
v -0.125757 2.413643 -1.334425
v -0.215914 2.413643 1.334425
v -0.215914 2.413643 -1.334425
v -0.215914 2.413643 -1.210279
v -0.125757 2.413643 -1.210279
v -0.125757 2.413643 1.214226
v -0.215914 2.413643 1.214226
v -0.127494 0.539695 1.334425
v -0.217652 0.539695 1.334425
v -0.127494 0.539695 -1.210279
v -0.127494 0.539695 1.214226
v -0.127494 0.539695 -1.334425
v -0.217652 0.539695 -1.334425
v -0.217652 0.539695 -1.210279
v -0.217652 0.539695 1.214226
vt 0.750000 0.499525
vt 0.750000 1.000000
vt 1.000000 1.000000
vt 1.000000 0.499525
vt 0.750000 0.499525
vt 1.000000 0.499525
vt 1.000000 1.000000
vt 0.750000 1.000000
vt 0.000000 0.249763
vt 0.000000 0.000000
vt 0.000000 0.000000
vt 0.000000 0.249763
vt 0.500000 1.000000
vt 0.000000 1.000000
vt 0.000000 1.000000
vt 0.500000 1.000000
vt 0.750000 0.000000
vt 1.000000 0.000000
vt 1.000000 0.000000
vt 0.750000 0.000000
vt 1.000000 0.249763
vt 1.000000 0.249763
vt 0.000000 0.499525
vt 0.000000 0.499525
vt 0.750000 0.249763
vt 0.750000 0.249763
vt 0.500000 0.000000
vt 0.500000 0.249763
vt 0.500000 0.249763
vt 0.500000 0.000000
vt 0.500000 0.499525
vt 0.500000 0.499525
vn -0.9996 0.0270 0.0000
vn 0.9996 -0.0270 0.0000
vn 0.0000 -1.0000 0.0000
vn 0.0000 0.0000 1.0000
vn -0.0000 0.0000 -1.0000
vn 0.0000 1.0000 0.0000
vn 0.9984 -0.0563 0.0000
vn -0.9984 0.0563 0.0000
vn 1.0000 -0.0009 0.0000
vn -1.0000 0.0009 0.0000
usemtl None
s off
f 187/161/101 189/162/101 164/163/101 170/164/101
f 191/165/102 172/166/102 168/167/102 190/168/102
f 173/169/103 161/170/103 166/171/103 174/172/103
f 178/173/104 163/174/104 165/175/104 180/176/104
f 185/177/105 162/178/105 167/179/105 186/180/105
f 170/164/106 164/163/106 168/167/106 172/166/106
f 175/181/106 170/164/106 172/166/106 176/182/106
f 163/174/103 169/183/103 171/184/103 165/175/103
f 192/185/102 176/182/102 172/166/102 191/165/102
f 188/186/101 187/161/101 170/164/101 175/181/101
f 185/177/101 188/186/101 175/181/101 162/178/101
f 186/180/102 167/179/102 176/182/102 192/185/102
f 162/178/106 175/181/106 176/182/106 167/179/106
f 169/183/103 173/169/103 174/172/103 171/184/103
f 166/171/107 179/187/107 184/188/107 174/172/107
f 161/170/108 173/169/108 183/189/108 177/190/108
f 173/169/108 169/183/108 182/191/108 183/189/108
f 174/172/107 184/188/107 181/192/107 171/184/107
f 161/170/105 177/190/105 179/187/105 166/171/105
f 189/162/104 178/173/104 180/176/104 190/168/104
f 171/184/107 181/192/107 180/176/107 165/175/107
f 169/183/108 163/174/108 178/173/108 182/191/108
f 164/163/104 189/162/104 190/168/104 168/167/104
f 179/187/109 186/180/109 192/185/109 184/188/109
f 177/190/110 183/189/110 188/186/110 185/177/110
f 183/189/110 182/191/110 187/161/110 188/186/110
f 188/186/106 187/161/106 191/165/106 192/185/106
f 177/190/105 185/177/105 186/180/105 179/187/105
f 181/192/109 191/165/109 190/168/109 180/176/109
f 182/191/110 178/173/110 189/162/110 187/161/110
f 182/191/104 181/192/104 191/165/104 187/161/104
f 182/191/106 181/192/106 184/188/106 183/189/106
f 183/189/104 184/188/104 192/185/104 188/186/104
o Cube_Cube.001
v -0.161886 0.522095 1.268835
v -0.161886 2.408349 1.268835
v -0.161886 0.522095 -1.268835
v -0.161886 2.408349 -1.268835
v -0.128091 0.522095 1.268835
v -0.128091 2.408349 1.268835
v -0.128091 0.522095 -1.268835
v -0.128091 2.408349 -1.268835
vt 0.375000 0.000000
vt 0.625000 0.000000
vt 0.625000 0.250000
vt 0.375000 0.250000
vt 0.625000 0.500000
vt 0.375000 0.500000
vt 0.625000 0.750000
vt 0.375000 0.750000
vt 0.625000 1.000000
vt 0.375000 1.000000
vt 0.125000 0.500000
vt 0.125000 0.750000
vt 0.875000 0.500000
vt 0.875000 0.750000
vn -1.0000 0.0000 0.0000
vn 0.0000 0.0000 -1.0000
vn 1.0000 0.0000 0.0000
vn 0.0000 0.0000 1.0000
vn 0.0000 -1.0000 0.0000
vn 0.0000 1.0000 0.0000
usemtl None
s off
f 193/193/111 194/194/111 196/195/111 195/196/111
f 195/196/112 196/195/112 200/197/112 199/198/112
f 199/198/113 200/197/113 198/199/113 197/200/113
f 197/200/114 198/199/114 194/201/114 193/202/114
f 195/203/115 199/198/115 197/200/115 193/204/115
f 200/197/116 196/205/116 194/206/116 198/199/116
